<svg width="112" height="124" viewBox="0 0 112 124" fill="none" xmlns="http://www.w3.org/2000/svg">
<path fill-rule="evenodd" clip-rule="evenodd" d="M56 0.5C41.9167 0.5 30.5 11.9167 30.5 26C30.5 40.0833 41.9167 51.5 56 51.5C70.0833 51.5 81.5 40.0833 81.5 26C81.5 11.9167 70.0833 0.5 56 0.5ZM56 3.5C68.4264 3.5 78.5 13.5736 78.5 26C78.5 38.4264 68.4264 48.5 56 48.5C43.5736 48.5 33.5 38.4264 33.5 26C33.5 13.5736 43.5736 3.5 56 3.5Z" fill="#BFC1C3"/>
<path fill-rule="evenodd" clip-rule="evenodd" d="M56 66.5C86.6517 66.5 111.5 91.3483 111.5 122C111.5 122.828 110.828 123.5 110 123.5C109.172 123.5 108.5 122.828 108.5 122C108.5 93.0051 84.9949 69.5 56 69.5C27.0051 69.5 3.5 93.0051 3.5 122C3.5 122.828 2.82843 123.5 2 123.5C1.17157 123.5 0.5 122.828 0.5 122C0.5 91.3483 25.3483 66.5 56 66.5Z" fill="#BFC1C3"/>
<path fill-rule="evenodd" clip-rule="evenodd" d="M71 106C71.8284 106 72.5 106.672 72.5 107.5C72.5 108.28 71.9051 108.92 71.1445 108.993L71 109H41C40.1716 109 39.5 108.328 39.5 107.5C39.5 106.72 40.0949 106.08 40.8555 106.007L41 106H71Z" fill="#BFC1C3"/>
<path fill-rule="evenodd" clip-rule="evenodd" d="M56.5 90.5C57.2797 90.5 57.9204 91.0949 57.9931 91.8555L58 92V122C58 122.828 57.3284 123.5 56.5 123.5C55.7203 123.5 55.0796 122.905 55.0069 122.144L55 122V92C55 91.1716 55.6716 90.5 56.5 90.5Z" fill="#BFC1C3"/>
</svg>
