<svg width="120" height="45" viewBox="0 0 120 45" fill="none" xmlns="http://www.w3.org/2000/svg">
<path fill-rule="evenodd" clip-rule="evenodd" d="M13.7188 28.3188C13.7188 20.2974 20.2177 13.7955 28.2352 13.7955C36.2527 13.7955 42.7514 20.2974 42.7368 28.3188C42.7368 29.2393 42.6493 30.1599 42.4887 31.0365C42.4789 31.1337 42.4563 31.2308 42.4336 31.3279C42.4222 31.3769 42.4108 31.4259 42.401 31.4749C42.3936 31.4896 42.3899 31.5006 42.3862 31.5117C42.3826 31.5225 42.379 31.5334 42.3718 31.5478H22.2182C22.9923 34.6894 25.8255 37.0271 29.2136 37.0271C31.9737 37.0271 34.3688 35.4637 35.581 33.1845L41.5539 37.6116C38.7499 41.4395 34.2373 43.9234 29.1259 43.9234C20.6119 43.9234 13.7188 37.0271 13.7188 28.5088V28.3188ZM28.4542 20.8089C25.8108 20.8089 23.5911 22.5913 22.9047 25.0168H34.0037C33.3172 22.5913 31.0975 20.8089 28.4542 20.8089Z" fill="white"/>
<path d="M10.8022 13.7955H0.954102V43.9234H10.8022V13.7955Z" fill="white"/>
<ellipse cx="5.89187" cy="5.89187" rx="5.89187" ry="5.89187" fill="#46BEFF"/>
<path d="M48.9775 40.4572C48.9775 42.4397 50.4116 43.7864 52.5562 43.7864C54.6885 43.7864 56.1224 42.4397 56.1224 40.4572V34.7838H54.5139V40.4447C54.5139 41.6418 53.7283 42.3151 52.5437 42.3151C51.3593 42.3151 50.5862 41.6418 50.5862 40.4572V34.7838H48.9775V40.4572Z" fill="white"/>
<path d="M58.2471 43.6369H59.8555V38.537C59.8555 38.0132 59.7682 37.1654 59.7682 37.1654H59.7931C59.7931 37.1654 60.1923 38.0257 60.5288 38.537L63.8831 43.6369H65.4792V34.7838H63.8831V39.8962C63.8831 40.4198 63.9703 41.2677 63.9703 41.2677H63.9453C63.9453 41.2677 63.5463 40.4073 63.2097 39.8962L59.8555 34.7838H58.2471V43.6369Z" fill="white"/>
<path d="M67.7207 43.6369H69.3291V34.7838H67.7207V43.6369Z" fill="white"/>
<path d="M73.663 43.6369H75.2591L78.4887 34.7838H76.7679L74.8102 40.557C74.6357 41.0683 74.486 41.8537 74.4735 41.8537H74.4486C74.4361 41.8537 74.2866 41.0683 74.1119 40.557L72.1667 34.7838H70.4336L73.663 43.6369Z" fill="white"/>
<path d="M79.5928 43.6369H85.0916V42.2527H81.2012V39.8711H84.1813V38.4871H81.2012V36.1678H84.892V34.7838H79.5928V43.6369Z" fill="white"/>
<path fill-rule="evenodd" clip-rule="evenodd" d="M88.3743 43.6369H86.7656V34.7838H89.6211C90.5813 34.7838 91.0176 34.8586 91.4043 35.0331C92.2895 35.4321 92.8507 36.2801 92.8507 37.4522C92.8507 38.512 92.2895 39.497 91.3544 39.8711V39.8962C91.3544 39.8962 91.479 40.0208 91.6536 40.3325L93.4741 43.6369H91.6786L89.9205 40.3325H88.3743V43.6369ZM88.3743 36.1678V38.936H89.8207C90.6811 38.936 91.2172 38.4247 91.2172 37.5395C91.2172 36.6914 90.8556 36.1678 89.5962 36.1678H88.3743Z" fill="white"/>
<path d="M94.2988 42.5769C94.2988 42.5769 95.3836 43.7864 97.3537 43.7864C99.1991 43.7864 100.271 42.602 100.271 41.1929C100.271 38.3623 96.1069 38.749 96.1069 37.1779C96.1069 36.5545 96.6929 36.1179 97.441 36.1179C98.5506 36.1179 99.3987 36.8911 99.3987 36.8911L100.097 35.5818C100.097 35.5818 99.1991 34.6342 97.4535 34.6342C95.7576 34.6342 94.4857 35.7315 94.4857 37.2028C94.4857 39.9211 98.6629 39.6467 98.6629 41.2303C98.6629 41.9535 98.052 42.3026 97.3785 42.3026C96.1317 42.3026 95.1715 41.3675 95.1715 41.3675L94.2988 42.5769Z" fill="white"/>
<path d="M101.877 43.6369H103.486V34.7838H101.877V43.6369Z" fill="white"/>
<path d="M107.558 43.6369H109.166V36.1678H112.072V34.7838H104.652V36.1678H107.558V43.6369Z" fill="white"/>
<path d="M115.448 43.6369H117.057V39.9336L120 34.7838H118.179L116.808 37.3898C116.521 37.9385 116.271 38.5744 116.271 38.5744H116.247C116.234 38.5869 115.997 37.9385 115.71 37.3898L114.326 34.7838H112.506L115.448 39.9336V43.6369Z" fill="white"/>
</svg>
