<?xml version="1.0" encoding="UTF-8"?>
<svg width="24px" height="24px" viewBox="0 0 24 24" version="1.1" xmlns="http://www.w3.org/2000/svg" xmlns:xlink="http://www.w3.org/1999/xlink">
    <title>Icons / Line / Log-out new</title>
    <g id="Icons-/-Line-/-Log-out-new" stroke="none" stroke-width="1" fill="none" fill-rule="evenodd">
        <g id="Group" transform="translate(3.000000, 2.000000)" fill="#ffffff">
            <path d="M2.0024692,0 L5.12821655,0 L5.12821655,1.0221465 L2.0024692,1.0221465 C1.29311262,1.0221465 1.02161407,1.33880179 1.02161407,1.99493844 L1.02161407,18.0340576 C1.02161407,18.5530428 1.49355425,19.0060447 2.0024692,19.0060447 L5.12821655,19.0060447 L5.12821655,20.0076991 L2.0024692,20.0076991 C0.776234763,20.0076991 0,19.2550823 0,18.0340576 L0,1.99493844 C0,0.62991006 0.647847857,0 2.0024692,0 Z" id="Path"></path>
            <polygon id="Path" points="17.1130238 10.5264735 2.69267658 10.5264735 2.69267658 9.53288542 17.1130238 9.53288542"></polygon>
            <path d="M17.3586368,9.49278879 C17.6382686,9.77224253 17.6380905,10.2255311 17.3586368,10.5051629 L12.8116804,15.0521193 L12.2684248,14.545763 L16.815203,9.99898478 L12.2684248,5.4521175 L12.8116804,4.94585027 L17.3586368,9.49278879 Z" id="Path"></path>
        </g>
    </g>
</svg>
