<svg width="120" height="44" viewBox="0 0 120 44" fill="none" xmlns="http://www.w3.org/2000/svg">
<path fill-rule="evenodd" clip-rule="evenodd" d="M13.7573 28.2454C13.7573 20.2447 20.2743 13.7598 28.3144 13.7598C36.3545 13.7598 42.8717 20.2447 42.857 28.2454C42.857 29.1635 42.7691 30.0817 42.608 30.9561C42.5983 31.0536 42.5754 31.1511 42.5525 31.2486C42.5411 31.2968 42.5298 31.345 42.5201 31.3932C42.5129 31.4076 42.5093 31.4185 42.5056 31.4293C42.502 31.4403 42.4983 31.4513 42.4908 31.466H22.2807C23.057 34.5994 25.8981 36.9311 29.2957 36.9311C32.0637 36.9311 34.4655 35.3717 35.6809 33.0984L41.6708 37.514C38.8589 41.3321 34.3336 43.8095 29.2078 43.8095C20.6697 43.8095 13.7573 36.9311 13.7573 28.4349V28.2454ZM28.5342 20.7549C25.8834 20.7549 23.6574 22.5327 22.9691 24.952H34.0993C33.411 22.5327 31.185 20.7549 28.5342 20.7549Z" fill="#000066"/>
<path d="M10.8323 13.7598H0.956543V43.8095H10.8323V13.7598Z" fill="#000066"/>
<ellipse cx="5.90845" cy="5.8766" rx="5.90845" ry="5.8766" fill="#46BEFF"/>
<path d="M49.0479 40.5184C49.0479 42.4783 50.4805 43.8095 52.623 43.8095C54.7532 43.8095 56.1856 42.4783 56.1856 40.5184V34.9099H54.5788V40.506C54.5788 41.6895 53.7939 42.3551 52.6105 42.3551C51.4272 42.3551 50.6549 41.6895 50.6549 40.5184V34.9099H49.0479V40.5184Z" fill="#000066"/>
<path d="M58.3086 43.6617H59.9154V38.6202C59.9154 38.1024 59.8283 37.2642 59.8283 37.2642H59.8531C59.8531 37.2642 60.2519 38.1147 60.5881 38.6202L63.939 43.6617H65.5336V34.9099H63.939V39.9638C63.939 40.4814 64.0262 41.3196 64.0262 41.3196H64.0012C64.0012 41.3196 63.6026 40.4691 63.2664 39.9638L59.9154 34.9099H58.3086V43.6617Z" fill="#000066"/>
<path d="M67.7725 43.6617H69.3793V34.9099H67.7725V43.6617Z" fill="#000066"/>
<path d="M73.7091 43.6617H75.3037L78.5301 34.9099H76.811L74.8552 40.617C74.6809 41.1225 74.5313 41.8989 74.5188 41.8989H74.494C74.4815 41.8989 74.3321 41.1225 74.1576 40.617L72.2143 34.9099H70.4829L73.7091 43.6617Z" fill="#000066"/>
<path d="M79.6333 43.6617H85.1267V42.2934H81.2402V39.939H84.2173V38.5709H81.2402V36.2781H84.9273V34.9099H79.6333V43.6617Z" fill="#000066"/>
<path fill-rule="evenodd" clip-rule="evenodd" d="M88.4054 43.6617H86.7983V34.9099H89.651C90.6102 34.9099 91.0461 34.9838 91.4324 35.1563C92.3168 35.5507 92.8774 36.3891 92.8774 37.5478C92.8774 38.5954 92.3168 39.5692 91.3826 39.939V39.9638C91.3826 39.9638 91.5071 40.087 91.6815 40.3952L93.5002 43.6617H91.7065L89.9501 40.3952H88.4054V43.6617ZM88.4054 36.2781V39.0146H89.8504C90.7099 39.0146 91.2455 38.5092 91.2455 37.6341C91.2455 36.7957 90.8843 36.2781 89.6262 36.2781H88.4054Z" fill="#000066"/>
<path d="M94.3252 42.6139C94.3252 42.6139 95.4089 43.8095 97.377 43.8095C99.2206 43.8095 100.292 42.6387 100.292 41.2457C100.292 38.4475 96.1314 38.8297 96.1314 37.2766C96.1314 36.6603 96.7169 36.2287 97.4642 36.2287C98.5728 36.2287 99.42 36.993 99.42 36.993L100.117 35.6987C100.117 35.6987 99.2206 34.7619 97.4767 34.7619C95.7825 34.7619 94.5119 35.8467 94.5119 37.3012C94.5119 39.9884 98.685 39.7172 98.685 41.2827C98.685 41.9976 98.0747 42.3427 97.4019 42.3427C96.1563 42.3427 95.197 41.4183 95.197 41.4183L94.3252 42.6139Z" fill="#000066"/>
<path d="M101.895 43.6617H103.502V34.9099H101.895V43.6617Z" fill="#000066"/>
<path d="M107.57 43.6617H109.177V36.2781H112.08V34.9099H104.668V36.2781H107.57V43.6617Z" fill="#000066"/>
<path d="M115.453 43.6617H117.06V40.0008L120 34.9099H118.181L116.811 37.4861C116.525 38.0285 116.276 38.6571 116.276 38.6571H116.251C116.238 38.6695 116.001 38.0285 115.715 37.4861L114.332 34.9099H112.514L115.453 40.0008V43.6617Z" fill="#000066"/>
</svg>
